<?xml version="1.0" standalone="no"?>
<!DOCTYPE svg PUBLIC "-//W3C//DTD SVG 20010904//EN"
 "http://www.w3.org/TR/2001/REC-SVG-20010904/DTD/svg10.dtd">
<svg version="1.0" xmlns="http://www.w3.org/2000/svg"
 width="700.000000pt" height="700.000000pt" viewBox="0 0 700.000000 700.000000"
 preserveAspectRatio="xMidYMid meet">
<metadata>
Created by potrace 1.11, written by Peter Selinger 2001-2013
</metadata>
<g transform="translate(0.000000,700.000000) scale(0.100000,-0.100000)"
fill="#000000" stroke="none">
<path d="M3728 6225 c-2 -2 -113 -6 -248 -10 -333 -9 -535 -19 -620 -30 -88
-11 -132 -18 -190 -31 -14 -3 -38 -8 -54 -10 -58 -11 -215 -77 -353 -149 -137
-72 -273 -151 -283 -164 -3 -4 -23 -17 -44 -30 -153 -88 -465 -380 -612 -571
-85 -110 -178 -251 -239 -360 -34 -62 -166 -327 -198 -400 -50 -113 -91 -271
-104 -406 -10 -102 -10 -793 1 -904 17 -191 27 -264 60 -425 22 -111 89 -301
153 -432 49 -101 204 -349 249 -398 11 -11 53 -61 94 -110 133 -160 402 -418
535 -513 136 -98 212 -143 348 -209 59 -29 110 -53 113 -53 3 0 25 -9 49 -20
108 -49 408 -144 520 -165 206 -38 325 -49 525 -50 200 0 364 15 554 50 223
42 551 158 759 268 304 161 491 298 717 526 293 296 481 599 615 994 40 115
48 179 31 222 -15 35 -105 119 -185 172 -71 47 -134 55 -185 23 -32 -19 -126
-128 -126 -145 0 -4 -8 -19 -19 -33 -10 -15 -53 -94 -96 -177 -139 -267 -231
-405 -390 -591 -203 -238 -472 -457 -699 -571 -87 -44 -276 -118 -276 -108 0
2 -10 1 -23 -4 -13 -5 -41 -12 -63 -15 -72 -12 -99 -16 -124 -21 -58 -11 -129
-20 -255 -32 -105 -10 -411 -10 -500 0 -758 84 -1411 547 -1759 1247 -85 171
-115 261 -151 448 -4 22 -9 66 -21 192 -7 79 -7 636 0 701 31 261 77 402 219
654 244 437 580 765 1002 978 160 81 359 153 475 172 19 3 60 10 90 15 166 28
668 31 854 5 17 -2 67 -9 111 -15 156 -22 373 -88 504 -154 171 -87 372 -265
491 -434 137 -195 184 -301 184 -422 1 -113 -45 -203 -163 -321 -97 -97 -149
-124 -236 -124 -83 0 -126 19 -225 100 -124 101 -321 198 -469 230 -11 3 -30
7 -42 10 -11 2 -28 6 -37 9 -9 3 -35 8 -57 12 -22 3 -42 7 -46 9 -3 2 -39 7
-80 10 -40 4 -85 9 -99 11 -36 6 -267 5 -325 -1 -118 -13 -211 -28 -275 -44
-150 -39 -233 -73 -255 -104 -23 -33 -19 -58 30 -201 25 -72 46 -147 47 -166
3 -34 1 -36 -67 -69 -83 -40 -184 -78 -355 -133 -420 -134 -515 -174 -580
-245 -40 -42 -44 -57 -41 -122 3 -45 67 -168 99 -189 48 -31 228 -10 417 49
172 54 584 162 665 174 33 5 41 2 54 -17 29 -44 50 -197 35 -252 -20 -73 -77
-102 -463 -233 -310 -105 -371 -131 -434 -181 -53 -42 -71 -76 -78 -148 -13
-111 -9 -138 25 -176 26 -29 34 -32 92 -34 122 -4 228 23 782 201 131 42 240
75 242 73 7 -7 125 -281 125 -289 0 -5 5 -9 10 -9 6 0 10 -6 10 -13 0 -24 59
-75 94 -81 60 -11 173 23 341 105 172 83 285 157 415 271 260 227 425 450 478
644 43 154 102 222 268 306 152 76 256 160 364 289 110 133 207 321 228 443 9
52 8 215 -1 284 -46 336 -276 723 -588 987 -273 232 -621 391 -919 421 -57 5
-417 13 -422 9z"/>
</g>
</svg>
